<svg width="30" height="31" viewBox="0 0 30 31" fill="none" xmlns="http://www.w3.org/2000/svg">
<path d="M18.75 24.25C18.75 25.2446 18.3549 26.1984 17.6516 26.9017C16.9483 27.6049 15.9945 28 15 28C14.0054 28 13.0516 27.6049 12.3483 26.9017C11.645 26.1984 11.25 25.2446 11.25 24.25M15.9012 6.75377L14.0687 6.75002C9.8887 6.74002 6.25995 10.1363 6.2312 14.25V18.9875C6.2312 19.975 6.1062 20.9388 5.56745 21.76L5.2087 22.3075C4.66245 23.1375 5.24995 24.25 6.2312 24.25H23.7687C24.75 24.25 25.3362 23.1375 24.7912 22.3075L24.4325 21.76C23.895 20.9388 23.7687 19.9738 23.7687 18.9863V14.2513C23.7187 10.1363 20.0812 6.76377 15.9012 6.75377Z" stroke="black" stroke-width="2" stroke-linecap="round" stroke-linejoin="round"/>
<path d="M15 3C15.663 3 16.2989 3.26339 16.7678 3.73223C17.2366 4.20107 17.5 4.83696 17.5 5.5V6.75H12.5V5.5C12.5 4.83696 12.7634 4.20107 13.2322 3.73223C13.7011 3.26339 14.337 3 15 3Z" stroke="black" stroke-width="2" stroke-linecap="round" stroke-linejoin="round"/>
</svg>
